<?xml version='1.0' encoding='ASCII' standalone='yes'?>
<svg xmlns:xlink="http://www.w3.org/1999/xlink" xmlns="http://www.w3.org/2000/svg" version="1.1" width="215.0px" viewBox="0 0 215.0px 215.0px" height="215.0px">
  <g>
    <path d="M0 107.5 L215 107.5" stroke="#9AB730" stroke-width="215px"/>
    <g transform="translate(39.21999717454263, 0) scale(1) translate(0, 0) scale(0.1518683336865155) ">
      <g clip-path="url(#clip0)">
        <path fill-rule="evenodd" clip-rule="evenodd" d="M871 1308.8v-.4c0-74-43.7-140.8-111-169.8l-116.5-50.3a490.6 490.6 0 0 0-390 0L137 1138.6c-67.3 29-111 95.9-111 169.8V1415h845v-106.2z" fill="#CCCCCC"/>
        <path d="M682.6 1258l5.4 142m-487.1-142l-8.9 142 8.9-142z" stroke="#333" stroke-width="12.5" stroke-linecap="round"/>
        <path d="M452 1194.7l15.4-17.1 56.5 35-34.7 177.4h-95L365 1212.7l55.6-35.2 16.8 17.4 7.4 7.8 7.2-8z" fill="#fff" stroke="#333" stroke-width="20"/>
        <path d="M525.7 1223.2l27.3-145.4-95.4 103.7 68 41.7zM361.8 1223.1l-26-142.7 94.6 101-68.6 41.7z" fill="#fff" stroke="#333" stroke-width="11"/>
        <path d="M448.5 1075a472.8 472.8 0 0 1 184.4 37.6l116.5 49.8a155.5 155.5 0 0 1 94.6 143.2v78.4H53v-78.4c0-62.4 37-118.6 94.6-143.2l116.5-49.8a468.5 468.5 0 0 1 184.4-37.6zm0-27c-67 0-133.3 13.6-195 39.8L137 1137.7a182.7 182.7 0 0 0-111 167.9V1411h845v-105.4c0-73.1-43.7-139.2-111-168L643.5 1088c-61.7-26.3-128-39.9-195-39.9z" fill="#333"/>
        <path fill-rule="evenodd" clip-rule="evenodd" d="M442.9 1174l32.6 20.6-16.2 20.4 16.7 169h-69l19.5-169-16.2-20.4 32.6-20.6z" fill="#333"/>
        <path d="M391 1387l-56.3-307c-45 56.2-15.7 228 4.7 307H391zM498 1383l55.6-307c44.5 56.2 15.5 228-4.6 307h-51z" fill="#333" fill-opacity=".3"/>
      </g>
      <defs>
        <clipPath id="clip0">
          <path fill="#fff" d="M0 0h899v1415H0z"/>
        </clipPath>
      </defs>
    </g>
    <g transform="translate(39.21999717454263, 0) scale(1) translate(0, 0) scale(0.1518683336865155) ">
      <g fill="none" fill-rule="evenodd">
        <path d="M163 774.9c-25.4-6.1-44.4-29-44.4-56.2v-37.5c0-27.3 19-50.2 44.4-56.2v149.9z" fill="#DBDBDB"/>
        <path d="M149.5 645.9v108c-10.6-8.1-17.5-20.9-17.5-35.3v-37.5c.1-14.3 6.9-27.1 17.5-35.2zm26.9-36c-39.4 0-71.3 31.9-71.3 71.3v37.5c0 39.4 31.9 71.3 71.3 71.3V609.9z" fill="#333" fill-rule="nonzero"/>
        <path d="M736.2 624.2c25.4 6.1 44.4 29 44.4 56.2v37.5c0 27.3-19 50.2-44.4 56.2V624.2z" fill="#D8BF82"/>
        <path d="M749.7 645.2c10.6 8.1 17.5 20.9 17.5 35.3V718c0 14.4-6.9 27.2-17.5 35.3V645.2zm-26.9-36v180c39.4 0 71.3-31.9 71.3-71.3v-37.5c-.1-39.3-32-71.2-71.3-71.2z" fill="#333" fill-rule="nonzero"/>
        <path d="M163 774.2c-25.4-6.1-44.4-29-44.4-56.2v-37.5c0-27.3 19-50.2 44.4-56.2v149.9z" fill="#D8BF82"/>
        <path d="M149.5 645.2v108c-10.6-8.1-17.5-20.9-17.5-35.3v-37.5c.1-14.3 6.9-27.1 17.5-35.2zm26.9-36c-39.4 0-71.3 31.9-71.3 71.3V718c0 39.4 31.9 71.3 71.3 71.3V609.2z" fill="#333" fill-rule="nonzero"/>
        <path d="M148 570.4h603.7v241.5H148z"/>
      </g>
    </g>
    <g transform="translate(39.21999717454263, 0) scale(1) translate(0, 0) scale(0.1518683336865155) ">
      <g fill="none" fill-rule="evenodd">
        <g fill-rule="nonzero">
          <path d="M446.6 1170.7c-33 0-62.1-21.1-72.2-52.6l-15.3-47.5L396.9 944l100.9.3 36.4 126.1-15.6 47.9c-10.2 31.2-39.1 52.3-72 52.3v.1z" fill="#D8BF82"/>
          <path d="M407 957.6l80.7.2 32.5 112.4-14.3 43.9c-8.4 25.7-32.1 43-59.1 43h-.1c-27.2 0-51-17.4-59.3-43.2l-14-43.5L407 957.6zm-20.1-27.1L345 1070.7l16.6 51.5c11.9 36.9 46.3 62 85.1 62h.2c38.6-.1 72.8-24.9 84.8-61.7l16.9-51.8L508 930.8l-121.1-.3z" fill="#333"/>
        </g>
        <path d="M148.5 280.2h602.6v241.5H148.5z"/>
        <path d="M148.5 280.2h602.6v241.5H148.5z"/>
        <path d="M148.5 280.1h602.6v241.5H148.5z"/>
        <g fill-rule="nonzero">
          <path d="M449.7 1019.2c-22.4 0-45-5.1-65.2-14.9l-145.3-69.8c-40.3-19.4-64.9-60.8-62.5-105.5v-.2c.6-10.4-.1-20.9-1.9-31.1l-13-74-.2-277.3c0-28.7 10.4-56.5 29.2-78.3 18.8-21.7 44.8-36 73.3-40.1 60.8-8.8 122.9-13.3 184.3-13.3 61.4 0 123.5 4.5 184.3 13.3 28.5 4.1 54.5 18.4 73.3 40.1 18.8 21.7 29.2 49.5 29.2 78.3l2.5 277.5-12.1 74.8c-1.6 9.7-2.1 19.6-1.6 29.3 2.4 44.6-22.1 86-62.3 105.5l-146.6 70.7c-20.2 9.9-42.9 15-65.4 15z" fill="#D8BF82"/>
          <path d="M448.4 328.2c60.8 0 122.2 4.4 182.4 13.2 25.2 3.7 48.3 16.3 65 35.6 16.7 19.3 25.9 44 25.9 69.5v.2l2.5 276.2-11.9 73.7c-1.7 10.6-2.3 21.5-1.7 32.2 2.1 39.2-19.4 75.5-54.7 92.6l-146.6 70.7c-18.5 8.9-39.1 13.6-59.6 13.6-20.4 0-41-4.7-59.4-13.5L245 922.4c-17.3-8.3-31.6-21.5-41.4-38-9.8-16.5-14.4-35.4-13.4-54.6v-.2c.6-11.4-.1-22.9-2.1-34.2l-12.8-72.9-.2-276.1c0-25.5 9.2-50.2 25.9-69.5 16.7-19.3 39.8-31.9 65-35.6 60.2-8.7 121.6-13.1 182.4-13.1zm0-27c-62.3 0-124.5 4.5-186.3 13.4-65.5 9.5-114 65.6-114 131.8l.2 278.5 13.2 75.2c1.6 9.3 2.2 18.7 1.7 28.1v.2c-2.7 50 25 96.7 70.1 118.4l145.3 69.8c22.2 10.7 46.5 16.2 71.1 16.2 24.7 0 49.1-5.6 71.3-16.3l146.6-70.7c45-21.7 72.6-68.4 69.9-118.3-.5-8.8 0-17.7 1.4-26.5l12.3-76-2.5-278.5c0-66.2-48.6-122.3-114-131.8-61.8-9-124-13.5-186.3-13.5z" fill="#333"/>
        </g>
        <path d="M148.5 280.1h602.6v241.5H148.5z"/>
      </g>
    </g>
    <g transform="translate(39.21999717454263, 0) scale(1) translate(0, 0) scale(0.1518683336865155) ">
      <g fill="none" fill-rule="evenodd">
        <path d="M27 110.4h845.2v724.5H27z"/>
        <g fill-rule="nonzero">
          <path d="M362.5 165.3s-8.6 4.5-96.4 4.5c-165.6 0-133.5 211.7-198.2 313.6 0 0-2.1 74.8 91.9 110.2 0 0 43.9-197.5 259.1-295.2l-56.4-133.1z" fill="#4E3521"/>
          <path d="M315.9 188.8c-1.6 1.6-39.1 40.2-85.2 102.6C153.6 395.8 115 482.7 96.2 537.2l25.4 8.8c32.9-95.4 89.1-182.2 130.5-238.2 45-61 82.7-99.8 83.1-100.2l-19.3-18.8z" fill="#333"/>
          <path d="M345.8 194.6l38.5 90.7c-42.4 21.8-81 48.9-115 80.8-32.2 30.2-60.2 64.6-83.5 102.4-21.3 34.7-34.6 65.8-42.5 87.6-17.8-10.7-31.1-24.2-39.5-40.4-5.5-10.6-7.7-20-8.6-25.9 20.7-36.4 31.5-82 41.9-126.1 10.3-43.8 21-89.2 40.8-120.7 20.2-32.1 47.3-46.4 88.1-46.4 39.5 0 64.1-.8 79.8-2zm16.7-29.3s-8.6 4.5-96.4 4.5c-165.6 0-133.5 211.7-198.2 313.6 0 0-2.1 74.8 91.9 110.2 0 0 43.9-197.5 259.1-295.2l-56.4-133.1z" fill="#333"/>
          <path d="M834.2 502.6s-28.4-29.9-41.7-114.5c-13.3-84.6-46.7-195.8-186.8-245.6-140.1-49.8-298.6-48.9-280.2 55.7 18.4 104.6 107.7 186.5 107.7 186.5l16.8-22.5c10.6-14.2 32.7-11.5 39.5 4.8 21.8 51.6 63.5 140 100.9 157.4 0 0 34.1-103.3 72.4-118.2 38.4-14.9 60.6 293.4 60.6 293.4s34.8 38 60.7-13.9c13.7-27.6 19.7-58.2 19.1-88.9-.3-20.5 5.1-52.7 31-94.2z" fill="#4E3521"/>
          <path d="M478.4 126.7c-1.7 0-3.5.3-5.2.9-7.7 2.6-12.2 10.3-10.7 18.3 9.7 51.8 42.2 184.9 134.2 303l21.2-16.5c-55.5-71.3-88.5-148.3-107.7-208.2 9.7 16.5 20.4 33.9 32 51.3C584.4 339 624.3 382 660.6 403.2l13.5-23.2c-78-45.5-158.5-198.5-181.3-244.3-2.9-5.7-8.4-9-14.4-9z" fill="#333"/>
          <path d="M439.3 137.3c45.5 0 102.9 11.1 157.4 30.5 30.2 10.7 56.6 25.2 78.5 43 19.1 15.6 35.5 34.3 48.6 55.5 26.9 43.6 37 92.8 42.2 126 9.1 57.8 25.1 92.9 36.4 111.6-21.8 40.2-26.3 72.5-25.9 93.4.5 28.1-5 53.8-16.3 76.5-4.8 9.6-8.4 12.1-9.2 12.5-.4-.1-1-.2-1.7-.5-1.9-24.1-6.9-80.6-14.4-136.6-5.9-43.7-12.2-78.8-18.8-104.2-4.3-16.6-8.7-29.3-13.6-38.7-3.4-6.7-7.1-12-11.3-16.2-9.2-9.2-19-11.1-25.6-11.1-4.2 0-8.4.8-12.4 2.4-13.8 5.4-26.7 16.5-39.4 34-8.6 11.7-17.2 26.6-25.6 44.1-3.2 6.6-6.1 13.1-8.7 19.2-6.2-8-13.5-18.8-22-33.4-17.4-30-33.1-64.7-43.1-88.5-7.8-18.5-25.8-30.4-45.9-30.4-14.6 0-28.1 6.2-37.5 17.1-7-8-15.2-18-23.7-29.5-20.5-28.1-46.7-71.8-55.3-120.3-3.8-21.5 3.7-30.4 6.2-33.4 12.1-14.7 41.7-23 81.1-23zm0-26.8c-73.1 0-124.8 25.5-113.8 87.7 18.3 104.5 107.7 186.5 107.7 186.5l16.8-22.5c4.7-6.2 11.5-9.2 18.3-9.2 8.7 0 17.4 4.9 21.2 14 21.8 51.6 63.5 140 100.9 157.4 0 0 34.1-103.3 72.4-118.2.9-.4 1.8-.5 2.7-.5 36.7 0 57.9 293.9 57.9 293.9s12.3 13.4 27.7 13.4c10.5 0 22.5-6.3 33-27.3 13.7-27.6 19.7-58.2 19.1-88.9-.4-20.5 5-52.8 30.9-94.2 0 0-28.4-29.9-41.7-114.5-13.3-84.6-46.7-195.8-186.8-245.6-56.7-20.2-116.5-32-166.3-32z" fill="#333"/>
        </g>
        <path d="M437.1 337c9.4-8.6 19.9-15.7 31.4-21 11.5-5.3 23.9-8.6 36.4-9.6 6.3-.5 12.5-.5 18.7.1 6.2.6 12.2 1.7 18.1 3.2 11.8 3 22.9 7.9 33.2 13.5l-6.3 12.6c-9.9-4.3-20.2-7.6-30.5-9.2-10.3-1.6-20.7-1.8-30.7.1-10 1.8-19.5 5.3-28.1 10.4-8.7 5-16.5 11.5-23.2 18.9l-19-19z" fill="#333" fill-rule="nonzero"/>
      </g>
    </g>
    <g transform="translate(39.21999717454263, 0) scale(1) translate(0, 0) scale(0.1518683336865155) ">
      <g fill="none" fill-rule="evenodd">
        <path d="M147.7 510.5h603.7V752H147.7z"/>
        <path d="M619.6 911.5L515.4 956c-21.6 9.2-46-5.2-48.2-28.6-.9-9-8.5-16-17.5-16-9.1 0-16.7 6.9-17.5 16-2.2 23.4-26.6 37.9-48.2 28.6l-104.2-44.6v9.9c0 31.3 16.3 61.6 46.1 85.8 25 20.3 60.5 33.7 99.6 37.7 16 1.6 32.4 1.6 48.4 0 39.1-4 74.6-17.4 99.6-37.7 29.8-24.2 46.1-54.5 46.1-85.8v-9.8z" stroke="#333" stroke-width="14.716" fill="#4E3521" fill-rule="nonzero"/>
      </g>
    </g>
    <g transform="translate(39.21999717454263, 0) scale(1) translate(0, 0) scale(0.1518683336865155) ">
      <style>.st1{fill:#333}</style>
      <path d="M453.7 878.9h-3.6c-38-.6-54.3-13.5-68.5-40.1L520 841c-16.7 30.1-31.7 37.9-66.3 37.9z" fill="#fff"/>
      <path class="st1" d="M396.3 847l49.3.8 60.1.9c-4.3 6.1-8.5 10.5-13 13.5-8.6 6-20.3 8.5-38.9 8.5h-3.4c-19-.3-31.9-3.7-41.9-11.1-4.4-3.1-8.4-7.2-12.2-12.6m-27.8-16.6c17.5 38 36 55.8 81.5 56.5h3.7c42.7 0 59.1-12.4 79.5-54l-87.4-1.4-77.3-1.1z"/>
      <path class="st1" d="M505.9 929.5c-2.5-3.9-6.4-6.9-10.3-9.5-4-2.5-8.3-4.5-12.7-6.1-8.9-3.2-18.2-4.8-27.5-5.3-9.3-.4-18.8.4-27.9 2.8-4.6 1.2-9 2.8-13.2 5-2.1 1.1-4.1 2.3-6 3.7-1.9 1.4-3.7 3-5.1 4.8 5.3 1.5 9.7 2.6 14.1 3.7 4.3 1 8.5 1.9 12.7 2.6 8.2 1.4 16.3 2.3 24.4 2.6 5.4.2 10.7.3 16.1 0 2.8-.1 5.5-.3 8.4-.5 4.2-.3 8.4-.9 12.8-1.5 4.3-.6 8.8-1.3 14.2-2.3z" opacity=".2"/>
      <path fill="none" d="M147.7 570.5h603.7V812H147.7z"/>
    </g>
    <g transform="translate(39.21999717454263, 0) scale(1) translate(0, 0) scale(0.1518683336865155) ">
      <path d="M445.8 788.5V608.7c-6.2 2.1-11.2 6.9-13.5 13.1l-15.4 56.3c-3.2 11.5-8.5 22.3-15.7 31.8-31.9 41.9-21.9 57.9 40.8 78.3.7.2 3.1.2 3.8.3z" opacity=".2" fill="#333"/>
      <path d="M397.7 755.7c10.8 14.8 28.4 24.4 48.1 24.4s37.3-9.6 48.1-24.4" fill="none" stroke="#333" stroke-width="16.163" stroke-miterlimit="10"/>
      <path d="M147.7 570.5h603.7V812H147.7z" fill="none"/>
    </g>
    <g transform="translate(39.21999717454263, 0) scale(1) translate(0, 0) scale(0.1518683336865155) ">
      <style>.st1{fill:#333}.st2{fill:none;stroke:#333;stroke-width:7.2709;stroke-miterlimit:10}</style>
      <path fill="none" d="M147.7 570.5h603.7V812H147.7z"/>
      <path class="st1" d="M378.4 589.8c-10.1-4.8-21.3-8-32.8-9.9-11.5-1.9-23.4-2.4-35.2-1.9-11.8.6-23.7 2.2-35.1 5.2-5.7 1.5-11.3 3.3-16.6 5.6-2.7 1.1-5.2 2.4-7.7 3.8-2.4 1.4-4.8 3-6.8 4.7l-.1.1c-2 1.7-5 1.4-6.7-.6-1.6-1.9-1.4-4.8.4-6.5 2.5-2.4 5.2-4.4 7.9-6.2 2.8-1.8 5.6-3.4 8.5-4.9 5.8-2.9 11.8-5.3 17.8-7.3 12.1-4 24.7-6.5 37.3-7.9 12.7-1.3 25.5-1.6 38.4-.3 12.8 1.3 25.7 4.1 38.2 9.1 4.8 1.9 7.1 7.3 5.2 12.1-1.9 4.8-7.3 7.1-12.1 5.2l-.6-.3z"/>
      <ellipse transform="rotate(-11.467 316.285 649.689)" class="st1" cx="316.3" cy="649.8" rx="41.2" ry="29.6"/>
      <path class="st2" d="M382.1 666.6c-10.2 16.4-30.3 29.9-55.3 35"/>
      <ellipse transform="rotate(-11.467 316.285 649.689)" class="st1" cx="316.3" cy="649.8" rx="41.2" ry="29.6"/>
      <path class="st1" d="M512.7 572.8c12.4-5 25.3-7.7 38.2-9.1 12.9-1.3 25.7-1.1 38.4.3 12.7 1.4 25.2 3.9 37.3 7.9 6.1 2 12 4.4 17.8 7.3 2.9 1.4 5.7 3.1 8.5 4.9 2.8 1.8 5.4 3.9 7.9 6.2 1.9 1.8 2 4.8.2 6.7-1.7 1.8-4.6 2-6.5.4l-.1-.1c-2.1-1.7-4.4-3.3-6.8-4.7-2.5-1.4-5-2.7-7.7-3.8-5.3-2.3-10.9-4.1-16.6-5.6-11.4-3-23.3-4.6-35.1-5.2-11.8-.5-23.7 0-35.2 1.9-11.5 1.9-22.7 5.1-32.8 9.9-4.6 2.2-10.2.2-12.4-4.4s-.2-10.2 4.4-12.4c.2 0 .4-.1.5-.2z"/>
      <ellipse transform="rotate(-78.533 582.287 649.781)" class="st1" cx="582.2" cy="649.8" rx="29.6" ry="41.2"/>
      <path class="st2" d="M516.4 666.6c10.2 16.4 30.3 29.9 55.3 35"/>
      <ellipse transform="rotate(-78.533 582.287 649.781)" class="st1" cx="582.2" cy="649.8" rx="29.6" ry="41.2"/>
    </g>
    <g transform="translate(39.21999717454263, 0) scale(1) translate(0, 0) scale(0.1518683336865155) ">
      <style>.st-1{opacity:.6;fill:#fff}.st2{fill:none;stroke:#333;stroke-width:14.7164;stroke-linecap:round;stroke-miterlimit:10}</style>
      <path fill="none" d="M27 570.5h845.2v239.3H27z"/>
      <path class="st-1" d="M685 599.9H461.7l8.4 75.1c2 17.7 17 31.1 34.8 31.1h151.5c9.5 0 17.5-7.1 18.5-16.6l10.1-89.6z"/>
      <path class="st2" d="M686.1 599.9h73.7"/>
      <path class="st-1" d="M211.4 599.9h223.3l-8.4 75.1c-2 17.7-17 31.1-34.8 31.1H239.9c-9.5 0-17.5-7.1-18.5-16.6l-10-89.6z"/>
      <path class="st2" d="M685 599.9H461.7l8.4 75.1c2 17.7 17 31.1 34.8 31.1h151.5c9.5 0 17.5-7.1 18.5-16.6l10.1-89.6zm-473.6 0h223.3l-8.4 75.1c-2 17.7-17 31.1-34.8 31.1H239.9c-9.5 0-17.5-7.1-18.5-16.6l-10-89.6zm-1.1 0h-73.7m278.5 0h65.1"/>
    </g>
  </g>
</svg>
